<?xml version="1.0" encoding="UTF-8" standalone="no"?> <svg id="Layer_x0020_1" xmlns="http://www.w3.org/2000/svg" width="3000" height="3000" viewBox="0 0 3000 3000">
  <path id="Path_145" data-name="Path 145" d="M1612.3,891.62v271.07a59.374,59.374,0,0,1-59.26,59.26H1446.95a59.374,59.374,0,0,1-59.26-59.26V891.62h-49.78a27.825,27.825,0,0,1-19.76-47.42L1478.9,656.45l21.08,18.04-21.13-18.09a27.845,27.845,0,0,1,43.57,1.63l160.72,187.72.05-.04a27.821,27.821,0,0,1-21.13,45.91h-49.78Z" fill="#fff"/>
  <path id="Path_146" data-name="Path 146" d="M1781.52,866.69h212.35V816.91a27.825,27.825,0,0,1,47.42-19.75L2229.04,957.9l.05-.05a27.828,27.828,0,0,1,3.04,39.23,27.254,27.254,0,0,1-4.67,4.34l-187.72,160.72.05.05a27.825,27.825,0,0,1-45.92-21.13h0v-49.78h-94.15v71.39a59.374,59.374,0,0,1-59.26,59.26H1734.37a59.412,59.412,0,0,1-59.26-59.26V973.08c0-58.49,47.97-106.41,106.41-106.41Z" fill="#fff"/>
  <path id="Path_147" data-name="Path 147" d="M1128.11,866.69h90.37c58.44,0,106.41,47.91,106.41,106.41v189.59a59.419,59.419,0,0,1-59.26,59.26H1159.54a59.445,59.445,0,0,1-59.26-59.26V1091.3h-94.15v49.78h0a27.825,27.825,0,0,1-45.92,21.13l.05-.05L772.54,1001.44a27.845,27.845,0,0,1-1.63-43.57l.05.05L958.71,797.18a27.825,27.825,0,0,1,47.42,19.75v49.78h121.98Z" fill="#fff"/>
  <path id="Path_148" data-name="Path 148" d="M1665.3,1821.88l1.33.34L1500,1947.23l-167.83-124.7,2.54-.65v-75.9a27.826,27.826,0,0,1,49.39-17.58c15.59,16.64,33.5,30.47,53.61,40.35a171.865,171.865,0,0,0,62.29,16.94,171.868,171.868,0,0,0,62.29-16.94c20.6-10.12,38.89-24.38,54.75-41.57l-.02-.06a27.825,27.825,0,0,1,48.28,18.87v75.9Zm-135.05,280.08a27.825,27.825,0,0,0-55.65,0v23.56a27.825,27.825,0,0,0,55.65,0Zm0,113.53a27.825,27.825,0,1,0-55.65,0v23.55a27.825,27.825,0,1,0,55.65,0Zm309.33-348.75,46.27,11.91c13.92,3.58,26.73,6.3,37.06,8.48,25.23,5.33,38.85,8.21,50.45,21.13,13.72,15.24,13.58,31.49,13.28,66.73l.01,19.3v331.22a27.819,27.819,0,0,1-27.82,27.82H1041.21a27.819,27.819,0,0,1-27.82-27.82V1994.29l.01-19.3c-.3-35.24-.43-51.47,13.28-66.73,11.61-12.92,25.23-15.8,50.45-21.13,10.32-2.18,23.14-4.89,37.06-8.48l43.27-11.14,225.52,237.63a27.831,27.831,0,0,0,44.3,4.45l-.04-.04,73.57-80,71.51,77.75a27.846,27.846,0,0,0,44.84-1.88l-.06-.07,222.5-238.61Zm-61.77-5.46-50.3-12.95L1537.93,1987.9l52.71,57.31,187.17-183.93Zm-513.45-17.99-50.8,13.07,196.58,189.73,52.75-57.36-198.53-145.45Z" fill="#fff"/>
  <path id="Path_149" data-name="Path 149" d="M1500,1785.68c92.13-7.55,152.74-82.98,176.7-170.19a324.218,324.218,0,0,0,11.03-104.85c-13.08-212.72-288.84-219.67-351.83-93.56-13.76,27.54-21.55,59.79-23.63,93.56a324.247,324.247,0,0,0,11.03,104.85c23.96,87.2,84.57,162.64,176.7,170.19Zm230.17-155.62c-29.69,108.06-107.07,201.67-226.36,211.06a27.848,27.848,0,0,1-5.79.19v-.04c-120.34-8.56-198.37-102.59-228.21-211.21a379.475,379.475,0,0,1-12.98-122.68c2.54-41.23,12.19-80.87,29.28-115.08,92.06-184.25,439.72-166.47,457.04,115.08a379.484,379.484,0,0,1-12.99,122.68Z" fill="#fff"/>
  <path id="Path_150" data-name="Path 150" d="M580.67,0H2419.33C2738.7,0,3000,261.3,3000,580.67V2419.33c0,319.37-261.3,580.67-580.67,580.67H580.67C261.3,3000,0,2738.7,0,2419.33V580.67C0,261.3,261.3,0,580.67,0ZM738.26,257.14H2261.73c264.62,0,481.12,216.5,481.12,481.12V2261.73c0,264.62-216.5,481.12-481.12,481.12H738.26c-264.62,0-481.12-216.5-481.12-481.12V738.26C257.14,473.64,473.64,257.14,738.26,257.14Z" fill="#fff" fill-rule="evenodd"/>
</svg>
